<svg height="512" viewBox="0 0 58 57" width="512" xmlns="http://www.w3.org/2000/svg"><g id="Page-1" fill="none" fill-rule="evenodd"><g id="020---Hot-Match"><g fill-rule="nonzero"><path id="Shape" d="m44 12.84c.0001217 1.3469026-.1746733 2.6881183-.52 3.99l-11.95 15.72c-2.41 1.97-5.1866667 4-8.33 6.09-.728.48-1.672.48-2.4 0-2.63-1.75-5-3.4566667-7.11-5.12-9.26-7.28-13.69-13.88-13.69-20.68 0-6.93 4.49-12.84 11-12.84 4.4051267.08105388 8.5007952 2.2815449 11 5.91 2.4992048-3.6284551 6.5948733-5.82894612 11-5.91 3.489569.0127203 6.7348022 1.79345729 8.62 4.73 1.5841054 2.40561078 2.4129201 5.22984907 2.38 8.11z" fill="#ff5364"/><path id="Shape" d="m44 12.84c.0001217 1.3469026-.1746733 2.6881183-.52 3.99l-11.95 15.72c-2.41 1.97-5.1866667 4-8.33 6.09-.728.48-1.672.48-2.4 0-2.63-1.75-5-3.4566667-7.11-5.12 14.72-5.82 23.36-19.03 27.93-28.79 1.5841054 2.40561078 2.4129201 5.22984907 2.38 8.11z" fill="#df4d60"/><path id="Shape" d="m4 13c-.55228475 0-1-.4477153-1-1-.00444952-3.25679722 1.73190688-6.26767658 4.553-7.895.49567556-.24687127 1.0976287-.04517554 1.34449998.45050001.24687128.49567556.04517557 1.0976287-.45049998 1.34449999-2.14213878 1.28531689-3.45116678 3.60184454-3.447 6.1 0 .2652165-.10535684.5195704-.29289322.7071068s-.44189029.2928932-.70710678.2928932z" fill="#fb7b76"/><circle id="Oval" cx="11" cy="4" fill="#fb7b76" r="1"/></g><path id="Shape" d="m56.689 47.992c-1.4779978 3.3455572-4.0933403 6.0593913-7.382 7.66-7.033 3.323-15.883.278-19.7-6.67-2.1471193-4.1421716-2.1385345-9.0713325.023-13.206 1.712-3.323 4.134-6.223 5.764-9.594 1.2136649-2.3641495 1.8859185-4.9687907 1.968-7.625.0196387-1.4119744-.1249995-2.8214424-.431-4.2-.063-.273-.149-.751-.262-1.284-.0754715-.3611237.0809936-.7311823.3926357-.9286297.311642-.1974475.7130763-.1808581 1.0073643.0416297 2.1181802 1.6204644 4.134034 3.3704766 6.036 5.24l.046.048c.757.882 3.191 4.12 1.63 7.709-1.152 2.634-2.526 8.53 1.933 8.845 1.773.128 3.093-1.351 3.788-2.812.3435785-.6831067.5745535-1.417229.684-2.174.0602282-.4393305.0398961-.8859589-.06-1.318-.037-.145-.295-1.079.152-.924.367.127.688.866.879 1.175 2.427 3.93 4.642 8.322 4.829 13.019.1158763 2.4016619-.3281431 4.7973811-1.297 6.998z" fill="#f0c419"/><path id="Shape" d="m37.355 55.072c2.593 2.3 6.789 2.232 9.734.8 1.7532921-.8490662 3.1856501-2.2414417 4.084-3.97.657997-1.1959194.8216762-2.601909.456-3.917-.4421577-1.1483398-1.1759344-2.161634-2.129-2.94-2.059-1.864-5.008-3.257-6.331-5.8-.4579079-.9666748-.7196199-2.0145424-.77-3.083-.0148087-.18498-.1435871-.3410126-.3224017-.3906337-.1788145-.049621-.3695839.0177371-.4775983.1686337-.7682984.9934104-1.4698392 2.0367017-2.1 3.123-.6986968.9629813-.8638266 2.2136798-.439 3.325.428.869 1.254 1.453 1.665 2.333.2740313.4502646.3347945.9987033.1659716 1.4980331-.1688228.4993298-.5499286.898373-1.0409716 1.0899669-.7550993.3089158-1.6192846.1729116-2.243-.353-.5202222-.3482119-.8820803-.8875852-1.007-1.501-.068-.635-.335-.231-.453.112-.1473247.4609465-.2616142.9318057-.342 1.409-.1655071.7891038-.2853727 1.587095-.359 2.39-.1636454 1.4809442.1062843 2.9775429.777 4.308.2954043.5267682.6781879.9994991 1.132 1.398z" fill="#f29c1f"/></g></g></svg>